<svg xmlns="http://www.w3.org/2000/svg" viewBox="0 0 960 457" role="img" aria-labelledby="title desc">
  <title id="title">Development pilot — compression throughput</title>
  <desc id="desc">Development evidence only; warm-ups excluded; missing measurements are not replaced by zero.</desc>
  <metadata>MathSVG development evidence; deterministic code-native SVG; measured successful TrialRecord rows only.</metadata>
  <rect width="100%" height="100%" fill="#ffffff"/>
  <text x="24" y="34" font-family="sans-serif" font-size="20" font-weight="700" fill="#17202a">Development pilot — compression throughput</text>
  <text x="24" y="58" font-family="sans-serif" font-size="12" fill="#52606d">DEVELOPMENT EVIDENCE · measured rows only · warm-ups excluded</text>
  <text x="24" y="78" font-family="sans-serif" font-size="11" fill="#6b7280">Wall-clock throughput includes process-wrapper overhead.</text>
  <line x1="225" y1="93" x2="225" y2="403" stroke="#e5e7eb" stroke-width="1"/>
  <text x="225" y="435" text-anchor="middle" font-family="sans-serif" font-size="10" fill="#6b7280">0</text>
  <line x1="378.75" y1="93" x2="378.75" y2="403" stroke="#e5e7eb" stroke-width="1"/>
  <text x="378.75" y="435" text-anchor="middle" font-family="sans-serif" font-size="10" fill="#6b7280">38</text>
  <line x1="532.5" y1="93" x2="532.5" y2="403" stroke="#e5e7eb" stroke-width="1"/>
  <text x="532.5" y="435" text-anchor="middle" font-family="sans-serif" font-size="10" fill="#6b7280">76.1</text>
  <line x1="686.25" y1="93" x2="686.25" y2="403" stroke="#e5e7eb" stroke-width="1"/>
  <text x="686.25" y="435" text-anchor="middle" font-family="sans-serif" font-size="10" fill="#6b7280">114.1</text>
  <line x1="840" y1="93" x2="840" y2="403" stroke="#e5e7eb" stroke-width="1"/>
  <text x="840" y="435" text-anchor="middle" font-family="sans-serif" font-size="10" fill="#6b7280">152.2</text>
  <text x="532.500" y="453" text-anchor="middle" font-family="sans-serif" font-size="11" fill="#374151">MB/s (decimal) · higher is better</text>
  <text x="213" y="123" text-anchor="end" font-family="sans-serif" font-size="11" fill="#1f2937">MathSVG Balanced · 1t</text>
  <rect x="225" y="110" width="6.321" height="18" rx="3" fill="#6d597a"/>
  <text x="238.321" y="123" font-family="sans-serif" font-size="10" fill="#111827">1.56 MB/s</text>
  <text x="213" y="165" text-anchor="end" font-family="sans-serif" font-size="11" fill="#1f2937">MathSVG Fast · 1t</text>
  <rect x="225" y="152" width="9.426" height="18" rx="3" fill="#e76f51"/>
  <text x="241.426" y="165" font-family="sans-serif" font-size="10" fill="#111827">2.33 MB/s</text>
  <text x="213" y="207" text-anchor="end" font-family="sans-serif" font-size="11" fill="#1f2937">gzip-6 · 1t</text>
  <rect x="225" y="194" width="57.093" height="18" rx="3" fill="#e9c46a"/>
  <text x="289.093" y="207" font-family="sans-serif" font-size="10" fill="#111827">14.13 MB/s</text>
  <text x="213" y="249" text-anchor="end" font-family="sans-serif" font-size="11" fill="#1f2937">lz4 · 1t</text>
  <rect x="225" y="236" width="332.913" height="18" rx="3" fill="#2a9d8f"/>
  <text x="564.913" y="249" font-family="sans-serif" font-size="10" fill="#111827">82.37 MB/s</text>
  <text x="213" y="291" text-anchor="end" font-family="sans-serif" font-size="11" fill="#1f2937">raw · 1t</text>
  <rect x="225" y="278" width="615" height="18" rx="3" fill="#6b7280"/>
  <text x="847.000" y="291" font-family="sans-serif" font-size="10" fill="#111827">152.17 MB/s</text>
  <text x="213" y="333" text-anchor="end" font-family="sans-serif" font-size="11" fill="#1f2937">xz-9e · 1t</text>
  <rect x="225" y="320" width="4.401" height="18" rx="3" fill="#8d5a97"/>
  <text x="236.401" y="333" font-family="sans-serif" font-size="10" fill="#111827">1.09 MB/s</text>
  <text x="213" y="375" text-anchor="end" font-family="sans-serif" font-size="11" fill="#1f2937">zstd-default · 1t</text>
  <rect x="225" y="362" width="133.278" height="18" rx="3" fill="#457b9d"/>
  <text x="365.278" y="375" font-family="sans-serif" font-size="10" fill="#111827">32.98 MB/s</text>
</svg>
