<svg xmlns="http://www.w3.org/2000/svg" viewBox="0 0 960 709" role="img" aria-labelledby="title desc">
  <title id="title">Development pilot — peak RSS</title>
  <desc id="desc">Development evidence only; warm-ups excluded; missing measurements are not replaced by zero.</desc>
  <metadata>MathSVG development evidence; deterministic code-native SVG; measured successful TrialRecord rows only.</metadata>
  <rect width="100%" height="100%" fill="#ffffff"/>
  <text x="24" y="34" font-family="sans-serif" font-size="20" font-weight="700" fill="#17202a">Development pilot — peak RSS</text>
  <text x="24" y="58" font-family="sans-serif" font-size="12" fill="#52606d">DEVELOPMENT EVIDENCE · measured rows only · warm-ups excluded</text>
  <text x="24" y="78" font-family="sans-serif" font-size="11" fill="#6b7280">Corpus RSS is max(file peak) within each repetition.</text>
  <line x1="225" y1="93" x2="225" y2="655" stroke="#e5e7eb" stroke-width="1"/>
  <text x="225" y="687" text-anchor="middle" font-family="sans-serif" font-size="10" fill="#6b7280">0</text>
  <line x1="378.75" y1="93" x2="378.75" y2="655" stroke="#e5e7eb" stroke-width="1"/>
  <text x="378.75" y="687" text-anchor="middle" font-family="sans-serif" font-size="10" fill="#6b7280">34.8</text>
  <line x1="532.5" y1="93" x2="532.5" y2="655" stroke="#e5e7eb" stroke-width="1"/>
  <text x="532.5" y="687" text-anchor="middle" font-family="sans-serif" font-size="10" fill="#6b7280">69.6</text>
  <line x1="686.25" y1="93" x2="686.25" y2="655" stroke="#e5e7eb" stroke-width="1"/>
  <text x="686.25" y="687" text-anchor="middle" font-family="sans-serif" font-size="10" fill="#6b7280">104.4</text>
  <line x1="840" y1="93" x2="840" y2="655" stroke="#e5e7eb" stroke-width="1"/>
  <text x="840" y="687" text-anchor="middle" font-family="sans-serif" font-size="10" fill="#6b7280">139.2</text>
  <text x="532.500" y="705" text-anchor="middle" font-family="sans-serif" font-size="11" fill="#374151">MiB · lower is better</text>
  <text x="213" y="123" text-anchor="end" font-family="sans-serif" font-size="11" fill="#1f2937">MathSVG Balanced · 1t</text>
  <rect x="225" y="110" width="93.096" height="18" rx="3" fill="#6d597a"/>
  <text x="325.096" y="123" font-family="sans-serif" font-size="10" fill="#111827">21.08 MiB</text>
  <text x="213" y="165" text-anchor="end" font-family="sans-serif" font-size="11" fill="#1f2937">MathSVG Balanced · 1t</text>
  <rect x="225" y="152" width="89.257" height="18" rx="3" fill="#6d597a"/>
  <text x="321.257" y="165" font-family="sans-serif" font-size="10" fill="#111827">20.21 MiB</text>
  <text x="213" y="207" text-anchor="end" font-family="sans-serif" font-size="11" fill="#1f2937">MathSVG Balanced · 1t</text>
  <rect x="225" y="194" width="94.925" height="18" rx="3" fill="#6d597a"/>
  <text x="326.925" y="207" font-family="sans-serif" font-size="10" fill="#111827">21.49 MiB</text>
  <text x="213" y="249" text-anchor="end" font-family="sans-serif" font-size="11" fill="#1f2937">MathSVG Balanced · 1t</text>
  <rect x="225" y="236" width="101.007" height="18" rx="3" fill="#6d597a"/>
  <text x="333.007" y="249" font-family="sans-serif" font-size="10" fill="#111827">22.87 MiB</text>
  <text x="213" y="291" text-anchor="end" font-family="sans-serif" font-size="11" fill="#1f2937">MathSVG Fast · 1t</text>
  <rect x="225" y="278" width="101.025" height="18" rx="3" fill="#2a9d8f"/>
  <text x="333.025" y="291" font-family="sans-serif" font-size="10" fill="#111827">22.87 MiB</text>
  <text x="213" y="333" text-anchor="end" font-family="sans-serif" font-size="11" fill="#1f2937">MathSVG Fast · 1t</text>
  <rect x="225" y="320" width="91.94" height="18" rx="3" fill="#2a9d8f"/>
  <text x="323.940" y="333" font-family="sans-serif" font-size="10" fill="#111827">20.81 MiB</text>
  <text x="213" y="375" text-anchor="end" font-family="sans-serif" font-size="11" fill="#1f2937">MathSVG Fast · 1t</text>
  <rect x="225" y="362" width="90.672" height="18" rx="3" fill="#2a9d8f"/>
  <text x="322.672" y="375" font-family="sans-serif" font-size="10" fill="#111827">20.53 MiB</text>
  <text x="213" y="417" text-anchor="end" font-family="sans-serif" font-size="11" fill="#1f2937">MathSVG Fast · 1t</text>
  <rect x="225" y="404" width="94.908" height="18" rx="3" fill="#e76f51"/>
  <text x="326.908" y="417" font-family="sans-serif" font-size="10" fill="#111827">21.49 MiB</text>
  <text x="213" y="459" text-anchor="end" font-family="sans-serif" font-size="11" fill="#1f2937">gzip-6 · 1t</text>
  <rect x="225" y="446" width="8.783" height="18" rx="3" fill="#e9c46a"/>
  <text x="240.783" y="459" font-family="sans-serif" font-size="10" fill="#111827">1.99 MiB</text>
  <text x="213" y="501" text-anchor="end" font-family="sans-serif" font-size="11" fill="#1f2937">lz4 · 1t</text>
  <rect x="225" y="488" width="42.118" height="18" rx="3" fill="#2a9d8f"/>
  <text x="274.118" y="501" font-family="sans-serif" font-size="10" fill="#111827">9.54 MiB</text>
  <text x="213" y="543" text-anchor="end" font-family="sans-serif" font-size="11" fill="#1f2937">raw · 1t</text>
  <rect x="225" y="530" width="8.869" height="18" rx="3" fill="#6b7280"/>
  <text x="240.869" y="543" font-family="sans-serif" font-size="10" fill="#111827">2.01 MiB</text>
  <text x="213" y="585" text-anchor="end" font-family="sans-serif" font-size="11" fill="#1f2937">xz-9e · 1t</text>
  <rect x="225" y="572" width="615" height="18" rx="3" fill="#8d5a97"/>
  <text x="847.000" y="585" font-family="sans-serif" font-size="10" fill="#111827">139.23 MiB</text>
  <text x="213" y="627" text-anchor="end" font-family="sans-serif" font-size="11" fill="#1f2937">zstd-default · 1t</text>
  <rect x="225" y="614" width="81.562" height="18" rx="3" fill="#457b9d"/>
  <text x="313.562" y="627" font-family="sans-serif" font-size="10" fill="#111827">18.46 MiB</text>
</svg>
